<?xml version="1.0" encoding="utf-8"?>
<svg xmlns="http://www.w3.org/2000/svg" style="margin: auto; background: none; display: block; shape-rendering: auto;" width="234" height="77" preserveAspectRatio="xMidYMid">
<style type="text/css">
  text {
    text-anchor: middle; font-size: 80px; opacity: 0;
  }
</style>
<g style="transform-origin:117px 38.5px;transform:scale(1)">
<g transform="translate(117,38.5)">
  <g transform="translate(-12,0)"><g class="path" style="transform: scale(0.91); transform-origin: -65.64px 2.56267px; animation: 1s linear -0.55s infinite normal forwards running breath-af50309e-c33c-4072-8b4b-bb4db6b98fdd;"><path d="M16.80-10.88L16.80-10.88L16.80-10.88Q16.80 1.12 24.56 4.96L24.56 4.96L24.56 4.96Q26.48 5.20 29.60 5.20L29.60 5.20L29.60 5.20Q32.72 5.20 36.20 4.28L36.20 4.28L36.20 4.28Q39.68 3.36 41.84 1.92L41.84 1.92L41.84 1.92Q44.88 0 46.40-1.76L46.40-1.76L46.40-1.76Q46.88-3.52 47.72-7.40L47.72-7.40L47.72-7.40Q48.56-11.28 49.04-13.28L49.04-13.28L50.72-12.88L50.72-12.88Q50.08-10.40 49.16-6.24L49.16-6.24L49.16-6.24Q48.24-2.08 47.80-0.28L47.80-0.28L47.80-0.28Q47.36 1.52 46.52 4.36L46.52 4.36L46.52 4.36Q45.68 7.20 44.88 8.52L44.88 8.52L44.88 8.52Q44.08 9.84 42.72 11.44L42.72 11.44L42.72 11.44Q40.56 14.08 35.84 15.44L35.84 15.44L35.52 13.76L35.52 13.76Q39.60 12.88 41.84 9.80L41.84 9.80L41.84 9.80Q44.08 6.72 45.68 1.12L45.68 1.12L45.68 1.12Q39.20 6.96 28.84 6.96L28.84 6.96L28.84 6.96Q18.48 6.96 12.92 1.08L12.92 1.08L12.92 1.08Q7.36-4.80 7.36-15.52L7.36-15.52L7.36-15.52Q7.36-30 16.72-39.36L16.72-39.36L16.72-39.36Q26.08-48.72 41.28-48.72L41.28-48.72L41.28-48.72Q48.32-48.72 51.44-46.20L51.44-46.20L51.44-46.20Q54.56-43.68 54.56-38.32L54.56-38.32L54.56-38.32Q54.56-34.72 51.04-29.44L51.04-29.44L51.04-29.44Q47.84-24.32 47.84-21.44L47.84-21.44L46.08-21.44L46.08-21.44Q46.08-23.04 46.72-24.88L46.72-24.88L46.72-24.88Q47.36-26.72 47.84-27.52L47.84-27.52L47.84-27.52Q48.32-28.32 49.60-30.40L49.60-30.40L49.60-30.40Q52.72-35.12 52.72-38.16L52.72-38.16L52.72-38.16Q52.72-44.56 47.44-46.24L47.44-46.24L47.44-46.24Q44.96-47.04 42.24-47.04L42.24-47.04L42.24-47.04Q39.52-47.04 36.48-46.72L36.48-46.72L36.48-46.72Q33.68-45.84 31.16-44.44L31.16-44.44L31.16-44.44Q28.64-43.04 25.92-40.20L25.92-40.20L25.92-40.20Q23.20-37.36 21.28-33.60L21.28-33.60L21.28-33.60Q19.36-29.84 18.08-23.96L18.08-23.96L18.08-23.96Q16.80-18.08 16.80-10.88" fill="#51cacc" stroke="none" stroke-width="none" transform="translate(-96.60000610351562,19.20266550699869)" style="fill: rgb(81, 202, 204);"></path></g><g class="path" style="transform: scale(0.91); transform-origin: -22.28px 4.00266px; animation: 1s linear -0.44s infinite normal forwards running breath-af50309e-c33c-4072-8b4b-bb4db6b98fdd;"><path d="M85.28 0.72L85.28 0.72L85.28 0.72Q78.24 0.72 77.60-5.44L77.60-5.44L77.60-5.44Q74.08 0.72 68.72 0.72L68.72 0.72L68.72 0.72Q63.36 0.72 60.20-2.52L60.20-2.52L60.20-2.52Q57.04-5.76 57.04-11.60L57.04-11.60L57.04-11.60Q57.04-20.72 61.52-25.92L61.52-25.92L61.52-25.92Q66-31.12 73.12-31.12L73.12-31.12L73.12-31.12Q78.96-31.12 80.88-25.60L80.88-25.60L80.88-25.60Q81.28-28 81.76-30.40L81.76-30.40L81.76-30.40Q87.68-30.40 90.56-30.88L90.56-30.88L91.60-31.12L86.08-0.88L86.08-0.88Q88.48-1.12 90.08-3.12L90.08-3.12L91.28-2.16L91.28-2.16Q88.88 0.72 85.28 0.72zM66.08-7.52L66.08-7.52Q66.08-3.92 67-2.52L67-2.52L67-2.52Q67.92-1.12 69.84-1.12L69.84-1.12L69.84-1.12Q71.76-1.12 73.76-3.20L73.76-3.20L73.76-3.20Q76.40-5.92 78-10.08L78-10.08L78-10.08Q78.24-11.12 78.92-15.08L78.92-15.08L78.92-15.08Q79.60-19.04 80.08-21.60L80.08-21.60L80.08-21.60Q79.84-24.64 78.40-26.88L78.40-26.88L78.40-26.88Q76.96-29.12 74.80-29.12L74.80-29.12L74.80-29.12Q70.88-29.12 68.48-22.12L68.48-22.12L68.48-22.12Q66.08-15.12 66.08-7.52L66.08-7.52" fill="#51cacc" stroke="none" stroke-width="none" transform="translate(-96.60000610351562,19.20266550699869)" style="fill: rgb(157, 248, 113);"></path></g><g class="path" style="transform: scale(0.91); transform-origin: 27.32px 4.00266px; animation: 1s linear -0.33s infinite normal forwards running breath-af50309e-c33c-4072-8b4b-bb4db6b98fdd;"><path d="M126.24-0.88L126.24-0.88L126.24-0.88Q128.16-0.88 130.24-3.12L130.24-3.12L131.44-2.16L131.44-2.16Q130.88-1.04 128.96-0.16L128.96-0.16L128.96-0.16Q127.04 0.72 124.72 0.72L124.72 0.72L124.72 0.72Q117.44 0.72 117.44-5.84L117.44-5.84L117.44-5.84Q117.44-8.64 118.88-15.84L118.88-15.84L118.88-15.84Q120.32-23.04 120.32-25.28L120.32-25.28L120.32-25.28Q120.32-28.72 117.04-28.72L117.04-28.72L117.04-28.72Q112.08-28.72 108.72-16L108.72-16L105.84 0L96.24 0L101.52-29.52L101.52-29.52Q99.12-29.28 97.52-27.28L97.52-27.28L96.32-28.24L96.32-28.24Q98.72-31.12 102.36-31.12L102.36-31.12L102.36-31.12Q106-31.12 108-29.28L108-29.28L108-29.28Q110-27.44 110-24.08L110-24.08L110-23.84L110-23.84Q113.12-31.12 119.44-31.12L119.44-31.12L119.44-31.12Q123.92-31.12 126.52-28.68L126.52-28.68L126.52-28.68Q129.12-26.24 129.36-21.84L129.36-21.84L129.36-21.84Q130.88-26.24 133.20-28.68L133.20-28.68L133.20-28.68Q135.52-31.12 139.92-31.12L139.92-31.12L139.92-31.12Q144.32-31.12 146.96-28.44L146.96-28.44L146.96-28.44Q149.60-25.76 149.60-21.04L149.60-21.04L149.60-21.04Q149.60-18.56 148.08-11.48L148.08-11.48L148.08-11.48Q146.56-4.40 146.40-0.88L146.40-0.88L146.40-0.88Q148.32-0.88 150.40-3.12L150.40-3.12L151.60-2.16L151.60-2.16Q151.04-1.04 149.12-0.16L149.12-0.16L149.12-0.16Q147.20 0.72 144.88 0.72L144.88 0.72L144.88 0.72Q137.60 0.72 137.60-5.84L137.60-5.84L137.60-5.84Q137.60-8.64 139.04-15.84L139.04-15.84L139.04-15.84Q140.48-23.04 140.48-25.28L140.48-25.28L140.48-25.28Q140.48-28.72 137.20-28.72L137.20-28.72L137.20-28.72Q131.44-28.72 127.92-11.60L127.92-11.60L127.92-11.60Q126.40-4.32 126.24-0.88" fill="#51cacc" stroke="none" stroke-width="none" transform="translate(-96.60000610351562,19.20266550699869)" style="fill: rgb(224, 255, 119);"></path></g><g class="path" style="transform: scale(0.91); transform-origin: 72.52px 4.00266px; animation: 1s linear -0.22s infinite normal forwards running breath-af50309e-c33c-4072-8b4b-bb4db6b98fdd;"><path d="M172.64-31.12L172.64-31.12L172.64-31.12Q182.80-31.12 182.80-23.04L182.80-23.04L182.80-23.04Q182.80-18 178.04-15.40L178.04-15.40L178.04-15.40Q173.28-12.80 164.48-12.72L164.48-12.72L164.48-12.72Q164.32-9.84 164.32-8.16L164.32-8.16L164.32-8.16Q164.32-4.56 165.96-2.84L165.96-2.84L165.96-2.84Q167.60-1.12 170.08-1.12L170.08-1.12L170.08-1.12Q172.56-1.12 174.60-2.08L174.60-2.08L174.60-2.08Q176.64-3.04 177.84-4.36L177.84-4.36L177.84-4.36Q179.04-5.68 179.92-7.12L179.92-7.12L179.92-7.12Q181.52-9.76 181.52-10.48L181.52-10.48L182.96-9.84L182.96-9.84Q182.72-8.56 181.52-6.44L181.52-6.44L181.52-6.44Q180.32-4.32 178.88-2.96L178.88-2.96L178.88-2.96Q177.44-1.60 174.64-0.44L174.64-0.44L174.64-0.44Q171.84 0.72 168.40 0.72L168.40 0.72L168.40 0.72Q161.92 0.72 158.60-2.36L158.60-2.36L158.60-2.36Q155.28-5.44 155.28-10.80L155.28-10.80L155.28-10.80Q155.28-20.32 160-25.72L160-25.72L160-25.72Q164.72-31.12 172.64-31.12zM180.80-23.04L180.80-23.04Q180.80-25.68 179.24-27.40L179.24-27.40L179.24-27.40Q177.68-29.12 174.60-29.12L174.60-29.12L174.60-29.12Q171.52-29.12 168.60-25.44L168.60-25.44L168.60-25.44Q165.68-21.76 164.72-14.56L164.72-14.56L164.72-14.56Q180.80-14.64 180.80-23.04L180.80-23.04" fill="#51cacc" stroke="none" stroke-width="none" transform="translate(-96.60000610351562,19.20266550699869)" style="fill: rgb(222, 157, 214);"></path></g><g class="path" style="transform: scale(0.91); transform-origin: 94.24px 15.8027px; animation: 1s linear -0.11s infinite normal forwards running breath-af50309e-c33c-4072-8b4b-bb4db6b98fdd;"><path d="M187.96-0.52L187.96-0.52L187.96-0.52Q186.80-1.68 186.80-3.36L186.80-3.36L186.80-3.36Q186.80-5.04 187.96-6.24L187.96-6.24L187.96-6.24Q189.12-7.44 190.80-7.44L190.80-7.44L190.80-7.44Q192.48-7.44 193.68-6.24L193.68-6.24L193.68-6.24Q194.88-5.04 194.88-3.36L194.88-3.36L194.88-3.36Q194.88-1.68 193.68-0.52L193.68-0.52L193.68-0.52Q192.48 0.64 190.80 0.64L190.80 0.64L190.80 0.64Q189.12 0.64 187.96-0.52" fill="#51cacc" stroke="none" stroke-width="none" transform="translate(-96.60000610351562,19.20266550699869)" style="fill: rgb(255, 112, 142);"></path></g><g class="path" style="transform: scale(0.91); transform-origin: 99.32px -10.2373px; animation: 1s linear 0s infinite normal forwards running breath-af50309e-c33c-4072-8b4b-bb4db6b98fdd;"><path d="M193.44-9.76L191.28-10L198.24-49.12L200.56-48.80L193.44-9.76" fill="#51cacc" stroke="none" stroke-width="none" transform="translate(-96.60000610351562,19.20266550699869)" style="fill: rgb(81, 202, 204);"></path></g></g>
</g>
</g>
<style id="breath-af50309e-c33c-4072-8b4b-bb4db6b98fdd" data-anikit="">@keyframes breath-af50309e-c33c-4072-8b4b-bb4db6b98fdd
{
  0% {
    animation-timing-function: cubic-bezier(0.9647,0.2413,-0.0705,0.7911);
    transform: scale(0.9099999999999999);
  }
  51% {
    animation-timing-function: cubic-bezier(0.9226,0.2631,-0.0308,0.7628);
    transform: scale(1.02994);
  }
  100% {
    transform: scale(0.9099999999999999);
  }
}</style></svg>